<svg xmlns="http://www.w3.org/2000/svg" width="14.561" height="13.651" viewBox="0 0 14.561 13.651">
  <path id="dog1" d="M14.106,4.07h-1.82l-.2-.407a.91.91,0,0,0-.814-.5H9.744l-.776-.776a.455.455,0,0,0-.777.322V6.967l3.64,1.3V7.256h.91a1.82,1.82,0,0,0,1.82-1.82v-.91A.455.455,0,0,0,14.106,4.07ZM10.921,5.435a.455.455,0,1,1,.455-.455A.455.455,0,0,1,10.921,5.435ZM2.73,7.711a.911.911,0,0,1-.91-.91A.91.91,0,0,0,0,6.8,2.726,2.726,0,0,0,1.82,9.363v6.083a.455.455,0,0,0,.455.455H4.1a.455.455,0,0,0,.455-.455V12.261H9.1v3.185a.455.455,0,0,0,.455.455h1.82a.455.455,0,0,0,.455-.455V9.234L7.567,7.711Z" transform="translate(0 -2.25)"/>
</svg>
