<svg xmlns="http://www.w3.org/2000/svg" width="20.6" height="19.313" viewBox="0 0 20.6 19.313">
  <path id="dog2" d="M19.957,4.825H17.382l-.288-.576a1.288,1.288,0,0,0-1.152-.712H13.785l-1.1-1.1a.644.644,0,0,0-1.1.455V8.924l5.15,1.839V9.331h1.288A2.575,2.575,0,0,0,20.6,6.756V5.469A.644.644,0,0,0,19.957,4.825ZM15.45,6.756a.644.644,0,1,1,.644-.644A.644.644,0,0,1,15.45,6.756ZM3.863,9.975A1.289,1.289,0,0,1,2.575,8.688,1.288,1.288,0,0,0,0,8.688a3.856,3.856,0,0,0,2.575,3.625v8.606a.644.644,0,0,0,.644.644H5.794a.644.644,0,0,0,.644-.644V16.413h6.438v4.506a.644.644,0,0,0,.644.644h2.575a.644.644,0,0,0,.644-.644V12.13L10.7,9.975Z" transform="translate(0 -2.25)"/>
</svg>
