<svg xmlns="http://www.w3.org/2000/svg" width="29.123" height="27.303" viewBox="0 0 29.123 27.303">
  <path id="dog3" d="M28.213,5.89h-3.64l-.407-.814A1.82,1.82,0,0,0,22.537,4.07h-3.05L17.936,2.518a.91.91,0,0,0-1.554.643v8.523l7.281,2.6V12.261h1.82a3.64,3.64,0,0,0,3.64-3.64V6.8A.91.91,0,0,0,28.213,5.89Zm-6.371,2.73a.91.91,0,1,1,.91-.91A.91.91,0,0,1,21.842,8.621ZM5.461,13.171a1.823,1.823,0,0,1-1.82-1.82,1.82,1.82,0,0,0-3.64,0,5.451,5.451,0,0,0,3.64,5.125V28.643a.91.91,0,0,0,.91.91h3.64a.91.91,0,0,0,.91-.91V22.272h9.1v6.371a.91.91,0,0,0,.91.91h3.64a.91.91,0,0,0,.91-.91V16.217l-8.529-3.046Z" transform="translate(0 -2.25)"/>
</svg>
