<svg xmlns="http://www.w3.org/2000/svg" width="17.788" height="16.677" viewBox="0 0 17.788 16.677">
  <path id="dog4" d="M.556,4.474H2.779l.249-.5a1.112,1.112,0,0,1,.994-.615H5.885l.948-.948a.556.556,0,0,1,.949.393V8.013L3.335,9.6V8.365H2.224A2.223,2.223,0,0,1,0,6.141V5.029A.556.556,0,0,1,.556,4.474ZM4.447,6.141a.556.556,0,1,0-.556-.556A.556.556,0,0,0,4.447,6.141ZM14.453,8.921a1.113,1.113,0,0,0,1.112-1.112,1.112,1.112,0,0,1,2.224,0,3.33,3.33,0,0,1-2.224,3.13v7.432a.556.556,0,0,1-.556.556H12.785a.556.556,0,0,1-.556-.556V14.48H6.671v3.891a.556.556,0,0,1-.556.556H3.891a.556.556,0,0,1-.556-.556v-7.59l5.21-1.86Z" transform="translate(0 -2.25)"/>
</svg>
