<svg xmlns="http://www.w3.org/2000/svg" width="36.062" height="32.054" viewBox="0 0 36.062 32.054">
  <path id="hand" d="M17.235,15.682a1.091,1.091,0,0,0,1.6,0l6.818-7.149A5.189,5.189,0,0,0,25.3,1.1a4.759,4.759,0,0,0-6.567.482l-.7.732-.695-.726A4.753,4.753,0,0,0,10.768,1.1a5.2,5.2,0,0,0-.351,7.437ZM35.39,20.54a2.072,2.072,0,0,0-2.667,0l-5.785,4.626a3.986,3.986,0,0,1-2.5.876H17.028a1,1,0,1,1,0-2h4.9a2.084,2.084,0,0,0,2.085-1.665,2.006,2.006,0,0,0-1.978-2.341H12.02a7.368,7.368,0,0,0-4.639,1.646L4.47,24.04H1a1,1,0,0,0-1,1v6.01a1,1,0,0,0,1,1H23.339a4.012,4.012,0,0,0,2.5-.876L35.308,23.6A2,2,0,0,0,35.39,20.54Z" transform="translate(0 0.002)"/>
</svg>
