<svg xmlns="http://www.w3.org/2000/svg" width="22" height="22" viewBox="0 0 22 22">
  <path id="temperature" d="M17.875,0A4.125,4.125,0,1,0,22,4.125,4.132,4.132,0,0,0,17.875,0Zm0,5.5A1.375,1.375,0,1,1,19.25,4.125,1.374,1.374,0,0,1,17.875,5.5ZM11,4.813a4.813,4.813,0,0,0-9.625,0v7.154a6.176,6.176,0,1,0,11,3.846A6.132,6.132,0,0,0,11,11.967ZM6.188,19.25a3.432,3.432,0,0,1-2.062-6.179V4.813a2.063,2.063,0,0,1,4.125,0v8.259A3.432,3.432,0,0,1,6.188,19.25Zm.688-5.375v-.812a.688.688,0,0,0-1.375,0v.812a2.063,2.063,0,1,0,1.375,0Z"/>
</svg>
